{
  "accessors": [
    {
      "bufferView": 2,
      "componentType": 5126,
      "count": 74,
      "max": [
        3.163275957107544,
        3.1152124404907227,
        0.00650229025632143
      ],
      "min": [
        -3.163275957107544,
        -3.134272813796997,
        -9.138195037841797
      ],
      "type": "VEC3"
    },
    {
      "bufferView": 2,
      "byteOffset": 888,
      "componentType": 5126,
      "count": 74,
      "max": [
        1.0,
        0.9848056435585022,
        0.9999978542327881
      ],
      "min": [
        -1.0,
        -0.9848057627677917,
        -0.9999979138374329
      ],
      "type": "VEC3"
    },
    {
      "bufferView": 1,
      "componentType": 5126,
      "count": 74,
      "max": [
        0.9722222089767456,
        1.0
      ],
      "min": [
        -0.027777791023254395,
        0.0
      ],
      "type": "VEC2"
    },
    {
      "bufferView": 0,
      "componentType": 5125,
      "count": 204,
      "type": "SCALAR"
    },
    {
      "bufferView": 2,
      "byteOffset": 1776,
      "componentType": 5126,
      "count": 74,
      "max": [
        3.163275957107544,
        3.1152124404907227,
        0.00650229025632143
      ],
      "min": [
        -3.163275957107544,
        -3.134272813796997,
        -9.138195037841797
      ],
      "type": "VEC3"
    },
    {
      "bufferView": 2,
      "byteOffset": 2664,
      "componentType": 5126,
      "count": 74,
      "max": [
        1.0,
        0.9848056435585022,
        0.9999978542327881
      ],
      "min": [
        -1.0,
        -0.9848057627677917,
        -0.9999979138374329
      ],
      "type": "VEC3"
    },
    {
      "bufferView": 1,
      "byteOffset": 592,
      "componentType": 5126,
      "count": 74,
      "max": [
        0.9722222089767456,
        1.0
      ],
      "min": [
        -0.027777791023254395,
        0.0
      ],
      "type": "VEC2"
    },
    {
      "bufferView": 0,
      "byteOffset": 816,
      "componentType": 5125,
      "count": 204,
      "type": "SCALAR"
    },
    {
      "bufferView": 2,
      "byteOffset": 3552,
      "componentType": 5126,
      "count": 74,
      "max": [
        3.163275957107544,
        3.1152124404907227,
        0.00650229025632143
      ],
      "min": [
        -3.163275957107544,
        -3.134272813796997,
        -9.138195037841797
      ],
      "type": "VEC3"
    },
    {
      "bufferView": 2,
      "byteOffset": 4440,
      "componentType": 5126,
      "count": 74,
      "max": [
        1.0,
        0.9848056435585022,
        0.9999978542327881
      ],
      "min": [
        -1.0,
        -0.9848057627677917,
        -0.9999979138374329
      ],
      "type": "VEC3"
    },
    {
      "bufferView": 1,
      "byteOffset": 1184,
      "componentType": 5126,
      "count": 74,
      "max": [
        0.9722222089767456,
        1.0
      ],
      "min": [
        -0.027777791023254395,
        0.0
      ],
      "type": "VEC2"
    },
    {
      "bufferView": 0,
      "byteOffset": 1632,
      "componentType": 5125,
      "count": 204,
      "type": "SCALAR"
    },
    {
      "bufferView": 2,
      "byteOffset": 5328,
      "componentType": 5126,
      "count": 74,
      "max": [
        3.163275957107544,
        3.1152124404907227,
        0.00650229025632143
      ],
      "min": [
        -3.163275957107544,
        -3.134272813796997,
        -9.138195037841797
      ],
      "type": "VEC3"
    },
    {
      "bufferView": 2,
      "byteOffset": 6216,
      "componentType": 5126,
      "count": 74,
      "max": [
        1.0,
        0.9848056435585022,
        0.9999978542327881
      ],
      "min": [
        -1.0,
        -0.9848057627677917,
        -0.9999979138374329
      ],
      "type": "VEC3"
    },
    {
      "bufferView": 1,
      "byteOffset": 1776,
      "componentType": 5126,
      "count": 74,
      "max": [
        0.9722222089767456,
        1.0
      ],
      "min": [
        -0.027777791023254395,
        0.0
      ],
      "type": "VEC2"
    },
    {
      "bufferView": 0,
      "byteOffset": 2448,
      "componentType": 5125,
      "count": 204,
      "type": "SCALAR"
    },
    {
      "bufferView": 2,
      "byteOffset": 7104,
      "componentType": 5126,
      "count": 5636,
      "max": [
        72.1875,
        17.838333129882813,
        42.94094467163086
      ],
      "min": [
        -72.1875,
        -44.0,
        8.935482025146484
      ],
      "type": "VEC3"
    },
    {
      "bufferView": 2,
      "byteOffset": 74736,
      "componentType": 5126,
      "count": 5636,
      "max": [
        1.0,
        0.998164176940918,
        0.9999938607215881
      ],
      "min": [
        -1.0,
        -1.0,
        -1.0
      ],
      "type": "VEC3"
    },
    {
      "bufferView": 1,
      "byteOffset": 2368,
      "componentType": 5126,
      "count": 5636,
      "max": [
        0.9995452165603638,
        0.9973732233047485
      ],
      "min": [
        0.0004547536373138428,
        0.006051570177078247
      ],
      "type": "VEC2"
    },
    {
      "bufferView": 0,
      "byteOffset": 3264,
      "componentType": 5125,
      "count": 31488,
      "type": "SCALAR"
    },
    {
      "bufferView": 2,
      "byteOffset": 142368,
      "componentType": 5126,
      "count": 5382,
      "max": [
        72.1875,
        44.0,
        66.0
      ],
      "min": [
        -72.1875,
        13.68023681640625,
        8.935480117797852
      ],
      "type": "VEC3"
    },
    {
      "bufferView": 2,
      "byteOffset": 206952,
      "componentType": 5126,
      "count": 5382,
      "max": [
        1.0,
        1.0,
        1.0
      ],
      "min": [
        -1.0,
        -0.9951654672622681,
        -1.0
      ],
      "type": "VEC3"
    },
    {
      "bufferView": 1,
      "byteOffset": 47456,
      "componentType": 5126,
      "count": 5382,
      "max": [
        0.9996777772903442,
        0.9975639581680298
      ],
      "min": [
        0.0003222227096557617,
        0.0017220377922058105
      ],
      "type": "VEC2"
    },
    {
      "bufferView": 0,
      "byteOffset": 129216,
      "componentType": 5125,
      "count": 29952,
      "type": "SCALAR"
    },
    {
      "bufferView": 2,
      "byteOffset": 271536,
      "componentType": 5126,
      "count": 8825,
      "max": [
        17.81249237060547,
        44.0,
        66.0
      ],
      "min": [
        -7.62939453125e-06,
        -44.0,
        8.935480117797852
      ],
      "type": "VEC3"
    },
    {
      "bufferView": 2,
      "byteOffset": 377436,
      "componentType": 5126,
      "count": 8825,
      "max": [
        1.0,
        1.0,
        1.0
      ],
      "min": [
        -1.0,
        -1.0,
        -1.0
      ],
      "type": "VEC3"
    },
    {
      "bufferView": 1,
      "byteOffset": 90512,
      "componentType": 5126,
      "count": 8825,
      "max": [
        0.9997702836990356,
        0.9999999403953552
      ],
      "min": [
        0.0,
        0.0008273124694824219
      ],
      "type": "VEC2"
    },
    {
      "bufferView": 0,
      "byteOffset": 249024,
      "componentType": 5125,
      "count": 50112,
      "type": "SCALAR"
    },
    {
      "bufferView": 2,
      "byteOffset": 483336,
      "componentType": 5126,
      "count": 8825,
      "max": [
        -72.1875,
        44.0,
        66.0
      ],
      "min": [
        -90.0,
        -44.0,
        8.935480117797852
      ],
      "type": "VEC3"
    },
    {
      "bufferView": 2,
      "byteOffset": 589236,
      "componentType": 5126,
      "count": 8825,
      "max": [
        1.0,
        1.0,
        1.0
      ],
      "min": [
        -1.0,
        -1.0,
        -1.0
      ],
      "type": "VEC3"
    },
    {
      "bufferView": 1,
      "byteOffset": 161112,
      "componentType": 5126,
      "count": 8825,
      "max": [
        0.9997702836990356,
        0.9999999403953552
      ],
      "min": [
        0.0,
        0.0008273124694824219
      ],
      "type": "VEC2"
    },
    {
      "bufferView": 0,
      "byteOffset": 449472,
      "componentType": 5125,
      "count": 50112,
      "type": "SCALAR"
    }
  ],
  "asset": {
    "extras": {
      "author": "Anim-Art (https://sketchfab.com/videogyar)",
      "license": "CC-BY-4.0 (http://creativecommons.org/licenses/by/4.0/)",
      "source": "https://sketchfab.com/3d-models/white-couch-brent-474304cb94e444e2b1127a9e9ebdc170",
      "title": "White Couch, \"Brent\""
    },
    "generator": "Sketchfab-12.67.0",
    "version": "2.0"
  },
  "bufferViews": [
    {
      "buffer": 0,
      "byteLength": 649920,
      "name": "floatBufferViews",
      "target": 34963
    },
    {
      "buffer": 0,
      "byteLength": 231712,
      "byteOffset": 649920,
      "byteStride": 8,
      "name": "floatBufferViews",
      "target": 34962
    },
    {
      "buffer": 0,
      "byteLength": 695136,
      "byteOffset": 881632,
      "byteStride": 12,
      "name": "floatBufferViews",
      "target": 34962
    }
  ],
  "buffers": [
    {
      "byteLength": 1576768,
      "uri": "scene.bin"
    }
  ],
  "images": [
    {
      "uri": "textures/feher_mubor_metallicRoughness.png"
    }
  ],
  "materials": [
    {
      "doubleSided": true,
      "name": "Material_2",
      "pbrMetallicRoughness": {
        "roughnessFactor": 0.5443978658536586
      }
    },
    {
      "doubleSided": true,
      "name": "feher_mubor",
      "occlusionTexture": {
        "index": 0,
        "strength": 0.0
      },
      "pbrMetallicRoughness": {
        "metallicFactor": 0.0,
        "metallicRoughnessTexture": {
          "index": 0
        },
        "roughnessFactor": 0.6
      }
    }
  ],
  "meshes": [
    {
      "name": "Labak04_Material #2_0",
      "primitives": [
        {
          "attributes": {
            "NORMAL": 1,
            "POSITION": 0,
            "TEXCOORD_0": 2
          },
          "indices": 3,
          "material": 0,
          "mode": 4
        }
      ]
    },
    {
      "name": "Labak03_Material #2_0",
      "primitives": [
        {
          "attributes": {
            "NORMAL": 5,
            "POSITION": 4,
            "TEXCOORD_0": 6
          },
          "indices": 7,
          "material": 0,
          "mode": 4
        }
      ]
    },
    {
      "name": "Labak02_Material #2_0",
      "primitives": [
        {
          "attributes": {
            "NORMAL": 9,
            "POSITION": 8,
            "TEXCOORD_0": 10
          },
          "indices": 11,
          "material": 0,
          "mode": 4
        }
      ]
    },
    {
      "name": "Labak01_Material #2_0",
      "primitives": [
        {
          "attributes": {
            "NORMAL": 13,
            "POSITION": 12,
            "TEXCOORD_0": 14
          },
          "indices": 15,
          "material": 0,
          "mode": 4
        }
      ]
    },
    {
      "name": "Uloresz_feher_mubor_0",
      "primitives": [
        {
          "attributes": {
            "NORMAL": 17,
            "POSITION": 16,
            "TEXCOORD_0": 18
          },
          "indices": 19,
          "material": 1,
          "mode": 4
        }
      ]
    },
    {
      "name": "Hatsoresz_feher_mubor_0",
      "primitives": [
        {
          "attributes": {
            "NORMAL": 21,
            "POSITION": 20,
            "TEXCOORD_0": 22
          },
          "indices": 23,
          "material": 1,
          "mode": 4
        }
      ]
    },
    {
      "name": "Balkar001_feher_mubor_0",
      "primitives": [
        {
          "attributes": {
            "NORMAL": 25,
            "POSITION": 24,
            "TEXCOORD_0": 26
          },
          "indices": 27,
          "material": 1,
          "mode": 4
        }
      ]
    },
    {
      "name": "Balkar_feher_mubor_0",
      "primitives": [
        {
          "attributes": {
            "NORMAL": 29,
            "POSITION": 28,
            "TEXCOORD_0": 30
          },
          "indices": 31,
          "material": 1,
          "mode": 4
        }
      ]
    }
  ],
  "nodes": [
    {
      "children": [
        1
      ],
      "matrix": [
        1.0,
        0.0,
        0.0,
        0.0,
        0.0,
        2.220446049250313e-16,
        -1.0,
        0.0,
        0.0,
        1.0,
        2.220446049250313e-16,
        0.0,
        0.0,
        0.0,
        0.0,
        1.0
      ],
      "name": "Sketchfab_model"
    },
    {
      "children": [
        2
      ],
      "matrix": [
        1.0,
        0.0,
        0.0,
        0.0,
        0.0,
        0.0,
        1.0,
        0.0,
        0.0,
        -1.0,
        0.0,
        0.0,
        0.0,
        0.0,
        0.0,
        1.0
      ],
      "name": "9c2d020f024c46c28daefa4b6c8bf13d.fbx"
    },
    {
      "children": [
        3,
        5,
        7,
        9,
        11,
        13,
        15,
        17
      ],
      "name": "RootNode"
    },
    {
      "children": [
        4
      ],
      "matrix": [
        1.0,
        0.0,
        0.0,
        0.0,
        0.0,
        2.220446049250313e-16,
        -1.0,
        0.0,
        0.0,
        1.0,
        2.220446049250313e-16,
        0.0,
        81.76231384277344,
        8.935766220092773,
        -38.28624725341797,
        1.0
      ],
      "name": "Labak04"
    },
    {
      "mesh": 0,
      "name": "Labak04_Material #2_0"
    },
    {
      "children": [
        6
      ],
      "matrix": [
        1.0,
        0.0,
        0.0,
        0.0,
        0.0,
        2.220446049250313e-16,
        -1.0,
        0.0,
        0.0,
        1.0,
        2.220446049250313e-16,
        0.0,
        -81.14427185058594,
        8.935766220092773,
        -38.28624725341797,
        1.0
      ],
      "name": "Labak03"
    },
    {
      "mesh": 1,
      "name": "Labak03_Material #2_0"
    },
    {
      "children": [
        8
      ],
      "matrix": [
        1.0,
        0.0,
        0.0,
        0.0,
        0.0,
        2.220446049250313e-16,
        -1.0,
        0.0,
        0.0,
        1.0,
        2.220446049250313e-16,
        0.0,
        81.76231384277344,
        8.935766220092773,
        38.30609893798828,
        1.0
      ],
      "name": "Labak02"
    },
    {
      "mesh": 2,
      "name": "Labak02_Material #2_0"
    },
    {
      "children": [
        10
      ],
      "matrix": [
        1.0,
        0.0,
        0.0,
        0.0,
        0.0,
        2.220446049250313e-16,
        -1.0,
        0.0,
        0.0,
        1.0,
        2.220446049250313e-16,
        0.0,
        -81.14427185058594,
        8.935766220092773,
        38.30609893798828,
        1.0
      ],
      "name": "Labak01"
    },
    {
      "mesh": 3,
      "name": "Labak01_Material #2_0"
    },
    {
      "children": [
        12
      ],
      "matrix": [
        1.0,
        0.0,
        0.0,
        0.0,
        0.0,
        2.220446049250313e-16,
        -1.0,
        0.0,
        0.0,
        1.0,
        2.220446049250313e-16,
        0.0,
        0.0,
        0.0,
        0.0,
        1.0
      ],
      "name": "Uloresz"
    },
    {
      "mesh": 4,
      "name": "Uloresz_feher_mubor_0"
    },
    {
      "children": [
        14
      ],
      "matrix": [
        1.0,
        0.0,
        0.0,
        0.0,
        0.0,
        2.220446049250313e-16,
        -1.0,
        0.0,
        0.0,
        1.0,
        2.220446049250313e-16,
        0.0,
        0.0,
        0.0,
        0.0,
        1.0
      ],
      "name": "Hatsoresz"
    },
    {
      "mesh": 5,
      "name": "Hatsoresz_feher_mubor_0"
    },
    {
      "children": [
        16
      ],
      "matrix": [
        1.0,
        0.0,
        0.0,
        0.0,
        0.0,
        2.220446049250313e-16,
        -1.0,
        0.0,
        0.0,
        1.0,
        2.220446049250313e-16,
        0.0,
        72.18749237060547,
        0.0,
        0.0,
        1.0
      ],
      "name": "Balkar001"
    },
    {
      "mesh": 6,
      "name": "Balkar001_feher_mubor_0"
    },
    {
      "children": [
        18
      ],
      "matrix": [
        1.0,
        0.0,
        0.0,
        0.0,
        0.0,
        2.220446049250313e-16,
        -1.0,
        0.0,
        0.0,
        1.0,
        2.220446049250313e-16,
        0.0,
        0.0,
        0.0,
        0.0,
        1.0
      ],
      "name": "Balkar"
    },
    {
      "mesh": 7,
      "name": "Balkar_feher_mubor_0"
    }
  ],
  "samplers": [
    {
      "magFilter": 9729,
      "minFilter": 9987,
      "wrapS": 10497,
      "wrapT": 10497
    }
  ],
  "scene": 0,
  "scenes": [
    {
      "name": "Sketchfab_Scene",
      "nodes": [
        0
      ]
    }
  ],
  "textures": [
    {
      "sampler": 0,
      "source": 0
    }
  ]
}
